<svg width="28" height="30" viewBox="0 0 28 30" fill="none" xmlns="http://www.w3.org/2000/svg">
<path d="M3.16669 30C2.47224 30 1.88196 29.7569 1.39585 29.2708C0.909743 28.7847 0.666687 28.1944 0.666687 27.5V11.25C0.666687 10.8611 0.756965 10.4861 0.93752 10.125C1.11808 9.76389 1.36113 9.47222 1.66669 9.25L12.5 1.125C12.7222 0.958333 12.9584 0.833333 13.2084 0.75C13.4584 0.666667 13.7222 0.625 14 0.625C14.2778 0.625 14.5417 0.666667 14.7917 0.75C15.0417 0.833333 15.2778 0.958333 15.5 1.125L26.3334 9.25C26.6389 9.47222 26.882 9.76389 27.0625 10.125C27.2431 10.4861 27.3334 10.8611 27.3334 11.25V27.5C27.3334 28.1944 27.0903 28.7847 26.6042 29.2708C26.1181 29.7569 25.5278 30 24.8334 30H17.3334V18.3333H10.6667V30H3.16669Z" fill="#22223B"/>
</svg>
