<svg width="26" height="26" viewBox="0 0 26 26" fill="none" xmlns="http://www.w3.org/2000/svg">
<path d="M15.1898 26H10.8024C10.5586 26 10.3426 25.9242 10.1542 25.7725C9.96588 25.6208 9.84955 25.4258 9.80523 25.1875L9.27342 21.905C8.85241 21.7533 8.40923 21.5475 7.9439 21.2875C7.47857 21.0275 7.06863 20.7567 6.71409 20.475L3.62295 21.8725C3.3792 21.9808 3.13546 21.9971 2.89171 21.9212C2.64797 21.8454 2.45962 21.6883 2.32667 21.45L0.132952 17.6475C5.96046e-08 17.4308 -0.0332381 17.2033 0.0332381 16.965C0.0997142 16.7267 0.232666 16.5317 0.432095 16.38L3.29057 14.3325C3.24625 14.1375 3.21855 13.9154 3.20747 13.6662C3.1964 13.4171 3.19086 13.195 3.19086 13C3.19086 12.805 3.1964 12.5829 3.20747 12.3337C3.21855 12.0846 3.24625 11.8625 3.29057 11.6675L0.432095 9.62C0.232666 9.46833 0.0997142 9.27333 0.0332381 9.035C-0.0332381 8.79667 5.96046e-08 8.56917 0.132952 8.3525L2.32667 4.55C2.45962 4.31167 2.64797 4.15458 2.89171 4.07875C3.13546 4.00292 3.3792 4.01917 3.62295 4.1275L6.71409 5.525C7.06863 5.24333 7.47857 4.9725 7.9439 4.7125C8.40923 4.4525 8.85241 4.2575 9.27342 4.1275L9.80523 0.8125C9.84955 0.574167 9.96588 0.379167 10.1542 0.2275C10.3426 0.0758333 10.5586 0 10.8024 0H15.1898C15.4335 0 15.6496 0.0758333 15.8379 0.2275C16.0263 0.379167 16.1426 0.574167 16.1869 0.8125L16.7188 4.095C17.1398 4.24667 17.5885 4.44708 18.0649 4.69625C18.5413 4.94542 18.9457 5.22167 19.2781 5.525L22.3692 4.1275C22.613 4.01917 22.8567 4.00292 23.1005 4.07875C23.3442 4.15458 23.5326 4.31167 23.6655 4.55L25.8592 8.32C25.9922 8.53667 26.031 8.76958 25.9756 9.01875C25.9202 9.26792 25.7817 9.46833 25.5601 9.62L22.7016 11.6025C22.7459 11.8192 22.7736 12.0521 22.7847 12.3012C22.7958 12.5504 22.8013 12.7833 22.8013 13C22.8013 13.2167 22.7958 13.4442 22.7847 13.6825C22.7736 13.9208 22.7459 14.1483 22.7016 14.365L25.5601 16.38C25.7595 16.5317 25.8925 16.7267 25.9589 16.965C26.0254 17.2033 25.9922 17.4308 25.8592 17.6475L23.6655 21.45C23.5326 21.6883 23.3442 21.8454 23.1005 21.9212C22.8567 21.9971 22.613 21.9808 22.3692 21.8725L19.2781 20.475C18.9235 20.7567 18.5191 21.0329 18.0649 21.3038C17.6106 21.5746 17.1619 21.775 16.7188 21.905L16.1869 25.1875C16.1426 25.4258 16.0263 25.6208 15.8379 25.7725C15.6496 25.9242 15.4335 26 15.1898 26ZM12.9961 17.225C14.1927 17.225 15.212 16.8133 16.054 15.99C16.896 15.1667 17.317 14.17 17.317 13C17.317 11.83 16.896 10.8333 16.054 10.01C15.212 9.18667 14.1927 8.775 12.9961 8.775C11.7995 8.775 10.7802 9.18667 9.93819 10.01C9.09615 10.8333 8.67514 11.83 8.67514 13C8.67514 14.17 9.09615 15.1667 9.93819 15.99C10.7802 16.8133 11.7995 17.225 12.9961 17.225Z" fill="#22223B"/>
</svg>
