<svg width="28" height="24" viewBox="0 0 28 24" fill="none" xmlns="http://www.w3.org/2000/svg">
<path d="M3.18182 20.05C2.65152 20.05 2.20076 19.8628 1.82955 19.4885C1.45833 19.1142 1.27273 18.6597 1.27273 18.125V2.72499C1.27273 2.19027 1.45833 1.73575 1.82955 1.36145C2.20076 0.987141 2.65152 0.799988 3.18182 0.799988H24.8182C25.3485 0.799988 25.7992 0.987141 26.1705 1.36145C26.5417 1.73575 26.7273 2.19027 26.7273 2.72499V18.125C26.7273 18.6597 26.5417 19.1142 26.1705 19.4885C25.7992 19.8628 25.3485 20.05 24.8182 20.05H3.18182ZM0.954545 23.9C0.678788 23.9 0.450758 23.8091 0.270454 23.6273C0.0901515 23.4455 0 23.2155 0 22.9375C0 22.6594 0.0901515 22.4295 0.270454 22.2477C0.450758 22.0659 0.678788 21.975 0.954545 21.975H27.0455C27.3212 21.975 27.5492 22.0659 27.7295 22.2477C27.9098 22.4295 28 22.6594 28 22.9375C28 23.2155 27.9098 23.4455 27.7295 23.6273C27.5492 23.8091 27.3212 23.9 27.0455 23.9H0.954545Z" fill="#22223B"/>
</svg>
