<svg width="305" height="109" viewBox="0 0 305 109" fill="none" xmlns="http://www.w3.org/2000/svg">
<path d="M44.4802 55V34.5182H49.3073V55H44.4802ZM46.9071 31.6113C46.1426 31.6113 45.4847 31.358 44.9336 30.8512C44.3824 30.3356 44.1068 29.7178 44.1068 28.9977C44.1068 28.2688 44.3824 27.651 44.9336 27.1443C45.4847 26.6287 46.1426 26.3709 46.9071 26.3709C47.6805 26.3709 48.3383 26.6287 48.8806 27.1443C49.4318 27.651 49.7073 28.2688 49.7073 28.9977C49.7073 29.7178 49.4318 30.3356 48.8806 30.8512C48.3383 31.358 47.6805 31.6113 46.9071 31.6113ZM54.2711 62.6807V34.5182H59.0181V37.9052H59.2982C59.5471 37.4074 59.8982 36.8784 60.3516 36.3184C60.805 35.7494 61.4183 35.265 62.1917 34.8649C62.9651 34.456 63.9519 34.2515 65.152 34.2515C66.7344 34.2515 68.1612 34.656 69.4324 35.465C70.7125 36.265 71.7259 37.4518 72.4726 39.0253C73.2283 40.5899 73.6061 42.51 73.6061 44.7858C73.6061 47.0349 73.2371 48.9461 72.4993 50.5196C71.7615 52.0931 70.7569 53.2932 69.4857 54.1199C68.2145 54.9467 66.7744 55.36 65.1653 55.36C63.9919 55.36 63.0185 55.1645 62.2451 54.7733C61.4717 54.3822 60.8494 53.911 60.3783 53.3599C59.916 52.7998 59.556 52.2709 59.2982 51.7731H59.0981V62.6807H54.2711ZM59.0048 44.7591C59.0048 46.0837 59.1915 47.2438 59.5649 48.2394C59.9471 49.2351 60.4938 50.0129 61.205 50.573C61.9251 51.1241 62.7962 51.3997 63.8186 51.3997C64.8853 51.3997 65.7787 51.1152 66.4988 50.5463C67.2188 49.9685 67.7611 49.1817 68.1256 48.1861C68.499 47.1815 68.6856 46.0392 68.6856 44.7591C68.6856 43.4879 68.5034 42.3589 68.1389 41.3722C67.7745 40.3854 67.2322 39.612 66.5121 39.052C65.7921 38.4919 64.8942 38.2119 63.8186 38.2119C62.7874 38.2119 61.9117 38.483 61.1917 39.0253C60.4716 39.5676 59.9249 40.3276 59.5515 41.3055C59.187 42.2833 59.0048 43.4346 59.0048 44.7591ZM101.328 36.9051H96.3414C96.1991 36.0873 95.9369 35.3627 95.5546 34.7316C95.1724 34.0915 94.6968 33.5493 94.1278 33.1048C93.5589 32.6603 92.91 32.3269 92.181 32.1047C91.4609 31.8736 90.6831 31.758 89.8475 31.758C88.3629 31.758 87.0472 32.1314 85.9005 32.8781C84.7537 33.6159 83.8558 34.7005 83.2069 36.1317C82.558 37.554 82.2335 39.292 82.2335 41.3455C82.2335 43.4346 82.558 45.1947 83.2069 46.6259C83.8647 48.0483 84.7626 49.1239 85.9005 49.8529C87.0472 50.573 88.3585 50.933 89.8341 50.933C90.652 50.933 91.4165 50.8263 92.1277 50.613C92.8477 50.3907 93.4922 50.0662 94.0612 49.6395C94.639 49.2128 95.1235 48.6883 95.5146 48.0661C95.9147 47.4438 96.1902 46.7326 96.3414 45.9325L101.328 45.9592C101.142 47.2571 100.737 48.475 100.115 49.6129C99.5016 50.7507 98.6971 51.7553 97.7015 52.6265C96.7058 53.4888 95.5413 54.1644 94.2079 54.6533C92.8744 55.1333 91.3943 55.3734 89.7675 55.3734C87.3673 55.3734 85.2249 54.8178 83.3402 53.7066C81.4556 52.5953 79.9711 50.9908 78.8865 48.8928C77.802 46.7948 77.2597 44.2791 77.2597 41.3455C77.2597 38.403 77.8064 35.8872 78.8999 33.7982C79.9933 31.7002 81.4823 30.0956 83.3669 28.9844C85.2515 27.8732 87.385 27.3176 89.7675 27.3176C91.2876 27.3176 92.7011 27.531 94.0078 27.9577C95.3146 28.3844 96.4792 29.0111 97.5015 29.8378C98.5238 30.6557 99.3639 31.6602 100.022 32.8514C100.688 34.0337 101.124 35.385 101.328 36.9051ZM114.58 55.4C112.579 55.4 110.846 54.96 109.379 54.0799C107.912 53.1998 106.774 51.9686 105.966 50.3863C105.165 48.8039 104.765 46.9549 104.765 44.8391C104.765 42.7234 105.165 40.8699 105.966 39.2786C106.774 37.6874 107.912 36.4517 109.379 35.5717C110.846 34.6916 112.579 34.2515 114.58 34.2515C116.58 34.2515 118.313 34.6916 119.78 35.5717C121.247 36.4517 122.38 37.6874 123.18 39.2786C123.989 40.8699 124.394 42.7234 124.394 44.8391C124.394 46.9549 123.989 48.8039 123.18 50.3863C122.38 51.9686 121.247 53.1998 119.78 54.0799C118.313 54.96 116.58 55.4 114.58 55.4ZM114.606 51.533C115.691 51.533 116.598 51.2352 117.327 50.6396C118.055 50.0351 118.598 49.2262 118.953 48.2127C119.318 47.1993 119.5 46.0703 119.5 44.8258C119.5 43.5723 119.318 42.4389 118.953 41.4255C118.598 40.4032 118.055 39.5898 117.327 38.9853C116.598 38.3808 115.691 38.0785 114.606 38.0785C113.495 38.0785 112.571 38.3808 111.833 38.9853C111.104 39.5898 110.557 40.4032 110.193 41.4255C109.837 42.4389 109.659 43.5723 109.659 44.8258C109.659 46.0703 109.837 47.1993 110.193 48.2127C110.557 49.2262 111.104 50.0351 111.833 50.6396C112.571 51.2352 113.495 51.533 114.606 51.533ZM133.318 42.999V55H128.491V34.5182H133.105V37.9985H133.345C133.816 36.8518 134.567 35.9406 135.598 35.265C136.638 34.5893 137.923 34.2515 139.452 34.2515C140.865 34.2515 142.096 34.5538 143.145 35.1583C144.203 35.7628 145.021 36.6384 145.599 37.7852C146.186 38.9319 146.475 40.3232 146.466 41.9589V55H141.639V42.7056C141.639 41.3366 141.283 40.2654 140.572 39.492C139.87 38.7186 138.896 38.3319 137.652 38.3319C136.807 38.3319 136.056 38.5186 135.398 38.8919C134.749 39.2564 134.238 39.7854 133.865 40.4787C133.5 41.1721 133.318 42.0122 133.318 42.999ZM156.2 42.999V55H151.373V34.5182H155.987V37.9985H156.227C156.698 36.8518 157.449 35.9406 158.48 35.265C159.52 34.5893 160.805 34.2515 162.334 34.2515C163.747 34.2515 164.978 34.5538 166.027 35.1583C167.085 35.7628 167.903 36.6384 168.481 37.7852C169.068 38.9319 169.357 40.3232 169.348 41.9589V55H164.521V42.7056C164.521 41.3366 164.165 40.2654 163.454 39.492C162.752 38.7186 161.778 38.3319 160.534 38.3319C159.689 38.3319 158.938 38.5186 158.28 38.8919C157.631 39.2564 157.12 39.7854 156.747 40.4787C156.382 41.1721 156.2 42.0122 156.2 42.999ZM183.322 55.4C181.269 55.4 179.495 54.9733 178.002 54.1199C176.517 53.2576 175.375 52.0397 174.575 50.4663C173.775 48.8839 173.375 47.0215 173.375 44.8791C173.375 42.7723 173.775 40.9232 174.575 39.332C175.384 37.7318 176.513 36.4873 177.962 35.5983C179.411 34.7005 181.113 34.2515 183.069 34.2515C184.331 34.2515 185.522 34.456 186.643 34.8649C187.772 35.265 188.767 35.8872 189.629 36.7318C190.501 37.5763 191.185 38.6519 191.683 39.9587C192.181 41.2566 192.43 42.8034 192.43 44.5991V46.0792H175.642V42.8256H187.803C187.794 41.9011 187.594 41.0788 187.203 40.3587C186.811 39.6298 186.265 39.0564 185.562 38.6386C184.869 38.2208 184.06 38.0119 183.136 38.0119C182.149 38.0119 181.282 38.2519 180.535 38.7319C179.789 39.2031 179.206 39.8254 178.789 40.5988C178.38 41.3633 178.171 42.2033 178.162 43.119V45.9592C178.162 47.1504 178.38 48.1727 178.815 49.0261C179.251 49.8707 179.86 50.5196 180.642 50.973C181.424 51.4175 182.34 51.6397 183.389 51.6397C184.091 51.6397 184.727 51.5419 185.296 51.3464C185.865 51.1419 186.358 50.8441 186.776 50.4529C187.194 50.0618 187.509 49.5773 187.723 48.9995L192.23 49.5062C191.945 50.6974 191.403 51.7375 190.603 52.6265C189.812 53.5065 188.798 54.191 187.563 54.68C186.327 55.16 184.913 55.4 183.322 55.4ZM205.447 55.4C203.403 55.4 201.647 54.9511 200.18 54.0533C198.722 53.1554 197.598 51.9153 196.807 50.3329C196.024 48.7417 195.633 46.9104 195.633 44.8391C195.633 42.7589 196.033 40.9232 196.833 39.332C197.633 37.7318 198.762 36.4873 200.22 35.5983C201.687 34.7005 203.421 34.2515 205.421 34.2515C207.083 34.2515 208.554 34.5582 209.835 35.1716C211.124 35.7761 212.15 36.634 212.915 37.7452C213.679 38.8475 214.115 40.1365 214.222 41.6122H209.608C209.421 40.6254 208.977 39.8031 208.274 39.1453C207.581 38.4786 206.652 38.1452 205.487 38.1452C204.501 38.1452 203.634 38.4119 202.887 38.9453C202.141 39.4698 201.558 40.2254 201.14 41.2121C200.732 42.1989 200.527 43.3812 200.527 44.7591C200.527 46.1548 200.732 47.3549 201.14 48.3594C201.549 49.3551 202.123 50.124 202.861 50.6663C203.607 51.1997 204.483 51.4664 205.487 51.4664C206.199 51.4664 206.834 51.333 207.394 51.0663C207.963 50.7907 208.439 50.3952 208.821 49.8796C209.203 49.364 209.466 48.7372 209.608 47.9994H214.222C214.106 49.4484 213.679 50.733 212.941 51.8531C212.204 52.9643 211.199 53.8355 209.928 54.4666C208.657 55.0889 207.163 55.4 205.447 55.4ZM228.413 34.5182V38.2519H216.638V34.5182H228.413ZM219.545 29.6111H224.372V48.8395C224.372 49.4884 224.47 49.9862 224.666 50.3329C224.87 50.6707 225.137 50.9019 225.466 51.0263C225.795 51.1508 226.159 51.213 226.559 51.213C226.862 51.213 227.137 51.1908 227.386 51.1463C227.644 51.1019 227.839 51.0619 227.973 51.0263L228.786 54.8C228.528 54.8889 228.159 54.9867 227.679 55.0933C227.208 55.2 226.63 55.2622 225.946 55.28C224.737 55.3156 223.648 55.1333 222.679 54.7333C221.71 54.3244 220.941 53.6932 220.372 52.8398C219.812 51.9864 219.536 50.9196 219.545 49.6395V29.6111Z" fill="#22223B"/>
<path d="M160.19 82.3765V61.8947H167.871C169.444 61.8947 170.764 62.168 171.831 62.7148C172.905 63.2615 173.715 64.0282 174.261 65.015C174.815 65.995 175.092 67.1385 175.092 68.4453C175.092 69.7587 174.811 70.8988 174.251 71.8656C173.698 72.8256 172.881 73.569 171.801 74.0957C170.721 74.6158 169.394 74.8758 167.821 74.8758H162.35V71.7955H167.321C168.241 71.7955 168.994 71.6689 169.581 71.4155C170.168 71.1555 170.601 70.7788 170.881 70.2854C171.168 69.7854 171.311 69.172 171.311 68.4453C171.311 67.7185 171.168 67.0985 170.881 66.5851C170.594 66.0651 170.158 65.6717 169.571 65.405C168.984 65.1316 168.228 64.995 167.301 64.995H163.901V82.3765H160.19ZM170.771 73.0957L175.842 82.3765H171.701L166.721 73.0957H170.771ZM189.638 67.5252C189.544 66.6518 189.151 65.9717 188.458 65.485C187.771 64.9983 186.878 64.7549 185.777 64.7549C185.004 64.7549 184.341 64.8716 183.787 65.105C183.234 65.3383 182.811 65.655 182.517 66.0551C182.224 66.4551 182.074 66.9118 182.067 67.4252C182.067 67.8519 182.164 68.2219 182.357 68.5353C182.557 68.8486 182.827 69.1153 183.167 69.3353C183.507 69.5487 183.884 69.7287 184.297 69.8754C184.711 70.0221 185.127 70.1454 185.547 70.2454L187.468 70.7255C188.241 70.9055 188.984 71.1488 189.698 71.4555C190.418 71.7622 191.061 72.1489 191.628 72.6156C192.201 73.0823 192.655 73.6457 192.988 74.3058C193.321 74.9658 193.488 75.7392 193.488 76.626C193.488 77.8261 193.181 78.8828 192.568 79.7962C191.955 80.703 191.068 81.413 189.908 81.9264C188.754 82.4331 187.358 82.6865 185.717 82.6865C184.124 82.6865 182.741 82.4398 181.567 81.9464C180.4 81.4531 179.487 80.733 178.827 79.7862C178.173 78.8395 177.82 77.6861 177.767 76.3259H181.417C181.47 77.0393 181.69 77.6327 182.077 78.1061C182.464 78.5795 182.967 78.9328 183.587 79.1662C184.214 79.3995 184.914 79.5162 185.687 79.5162C186.494 79.5162 187.201 79.3962 187.808 79.1562C188.421 78.9095 188.901 78.5695 189.248 78.1361C189.594 77.6961 189.771 77.1827 189.778 76.596C189.771 76.0626 189.614 75.6225 189.308 75.2759C189.001 74.9225 188.571 74.6291 188.018 74.3958C187.471 74.1558 186.831 73.9424 186.097 73.7557L183.767 73.1557C182.08 72.7223 180.747 72.0656 179.767 71.1855C178.793 70.2988 178.307 69.122 178.307 67.6552C178.307 66.4484 178.633 65.3917 179.287 64.4849C179.947 63.5782 180.844 62.8748 181.977 62.3747C183.111 61.868 184.394 61.6147 185.827 61.6147C187.281 61.6147 188.554 61.868 189.648 62.3747C190.748 62.8748 191.611 63.5715 192.238 64.4649C192.865 65.3517 193.188 66.3717 193.208 67.5252H189.638ZM205.947 70.6454V73.6257H196.726V70.6454H205.947ZM208.999 82.3765V79.6962L216.11 72.7256C216.79 72.0389 217.357 71.4289 217.81 70.8955C218.264 70.3621 218.604 69.8454 218.83 69.3453C219.057 68.8453 219.17 68.3119 219.17 67.7452C219.17 67.0985 219.024 66.5451 218.73 66.0851C218.437 65.6183 218.034 65.2583 217.52 65.005C217.007 64.7516 216.423 64.6249 215.77 64.6249C215.097 64.6249 214.507 64.7649 214 65.045C213.493 65.3183 213.1 65.7084 212.82 66.2151C212.546 66.7218 212.41 67.3252 212.41 68.0252H208.879C208.879 66.7251 209.176 65.595 209.77 64.6349C210.363 63.6748 211.18 62.9314 212.22 62.4047C213.266 61.878 214.467 61.6147 215.82 61.6147C217.193 61.6147 218.4 61.8714 219.44 62.3847C220.48 62.8981 221.287 63.6015 221.861 64.4949C222.441 65.3883 222.731 66.4084 222.731 67.5552C222.731 68.3219 222.584 69.0753 222.291 69.8154C221.997 70.5554 221.481 71.3755 220.74 72.2756C220.007 73.1757 218.977 74.2658 217.65 75.5459L214.12 79.1362V79.2762H223.041V82.3765H208.999ZM233.842 82.6565C232.401 82.6565 231.121 82.4098 230.001 81.9164C228.888 81.423 228.008 80.7363 227.361 79.8562C226.714 78.9762 226.371 77.9594 226.331 76.806H230.091C230.125 77.3594 230.308 77.8427 230.641 78.2561C230.975 78.6628 231.418 78.9795 231.971 79.2062C232.525 79.4329 233.145 79.5462 233.832 79.5462C234.565 79.5462 235.215 79.4195 235.782 79.1662C236.348 78.9062 236.792 78.5461 237.112 78.0861C237.432 77.6261 237.589 77.096 237.582 76.496C237.589 75.8759 237.429 75.3292 237.102 74.8558C236.775 74.3824 236.302 74.0124 235.682 73.7457C235.068 73.479 234.328 73.3457 233.462 73.3457H231.651V70.4854H233.462C234.175 70.4854 234.798 70.3621 235.332 70.1154C235.872 69.8687 236.295 69.522 236.602 69.0753C236.909 68.6219 237.059 68.0986 237.052 67.5052C237.059 66.9251 236.929 66.4218 236.662 65.995C236.402 65.5617 236.032 65.225 235.552 64.985C235.078 64.7449 234.522 64.6249 233.882 64.6249C233.255 64.6249 232.675 64.7383 232.141 64.965C231.608 65.1916 231.178 65.515 230.851 65.935C230.525 66.3484 230.351 66.8418 230.331 67.4152H226.761C226.788 66.2684 227.118 65.2616 227.751 64.3949C228.391 63.5215 229.245 62.8414 230.311 62.3547C231.378 61.8614 232.575 61.6147 233.902 61.6147C235.268 61.6147 236.455 61.8714 237.462 62.3847C238.475 62.8914 239.259 63.5748 239.812 64.4349C240.365 65.295 240.642 66.2451 240.642 67.2852C240.649 68.4386 240.309 69.4053 239.622 70.1854C238.942 70.9655 238.049 71.4755 236.942 71.7155V71.8756C238.382 72.0756 239.485 72.609 240.252 73.4757C241.026 74.3358 241.409 75.4059 241.402 76.686C241.402 77.8327 241.076 78.8595 240.422 79.7662C239.775 80.6663 238.882 81.373 237.742 81.8864C236.608 82.3998 235.308 82.6565 233.842 82.6565ZM244.835 82.3765V79.6962L251.946 72.7256C252.626 72.0389 253.192 71.4289 253.646 70.8955C254.099 70.3621 254.439 69.8454 254.666 69.3453C254.893 68.8453 255.006 68.3119 255.006 67.7452C255.006 67.0985 254.859 66.5451 254.566 66.0851C254.273 65.6183 253.869 65.2583 253.356 65.005C252.842 64.7516 252.259 64.6249 251.606 64.6249C250.932 64.6249 250.342 64.7649 249.835 65.045C249.329 65.3183 248.935 65.7084 248.655 66.2151C248.382 66.7218 248.245 67.3252 248.245 68.0252H244.715C244.715 66.7251 245.012 65.595 245.605 64.6349C246.199 63.6748 247.015 62.9314 248.055 62.4047C249.102 61.878 250.302 61.6147 251.656 61.6147C253.029 61.6147 254.236 61.8714 255.276 62.3847C256.316 62.8981 257.123 63.6015 257.696 64.4949C258.276 65.3883 258.566 66.4084 258.566 67.5552C258.566 68.3219 258.42 69.0753 258.126 69.8154C257.833 70.5554 257.316 71.3755 256.576 72.2756C255.843 73.1757 254.813 74.2658 253.486 75.5459L249.955 79.1362V79.2762H258.876V82.3765H244.835Z" fill="#22223B" fill-opacity="0.7"/>
</svg>
